<svg xmlns="http://www.w3.org/2000/svg" viewBox="0 0 21 20" enable-background="new 0 0 21 20"><g fill="#C3C3C3"><path d="M9.6.5h1.2c.2 0 .4.1.6.1 4 .5 7.2 3.7 7.9 7.6.1.4.1.7.2 1.1v1.1c-.1.4-.1.8-.2 1.1-.6 3.7-3.6 6.7-7.3 7.4-.5.1-.9.2-1.4.2H9.5c-.2 0-.5-.1-.7-.1-3.7-.5-6.8-3.2-7.7-6.8-.2-.6-.2-1.2-.4-1.8V9.2c0-.1.1-.3.1-.4.3-3.7 3-6.9 6.6-8C8.1.7 8.9.6 9.6.5zm4.7 12.6c1.1-1.7 1.2-2.8 1-4-.5-2.8-2.8-4.6-5.7-4.4-2 .2-3.5 1.2-4.3 3.1-.8 1.8-.7 3.6.5 5.2 1.6 2.2 4.3 2.9 6.7 1.7.3-.1.4-.1.6.1l1.7 1.7c.3.3.5.3.8 0l.6-.6c.4-.4.4-.5 0-.9-.6-.7-1.2-1.3-1.9-1.9zM6.7 9.8c0-1.9 1.5-3.4 3.4-3.3 1.9 0 3.3 1.5 3.4 3.4 0 1.7-1.5 3.4-3.5 3.4-1.8-.1-3.3-1.6-3.3-3.5z"/></g></svg>