<svg xmlns="http://www.w3.org/2000/svg" viewBox="0 0 21 20" enable-background="new 0 0 21 20"><g fill="#C3C3C3"><path d="M10.4 17.3H3.8c-2 0-3.5-1.5-3.5-3.5V4.9c0-2 1.5-3.6 3.6-3.6H17c1.9 0 3.5 1.5 3.5 3.4v9.1c0 1.9-1.5 3.4-3.4 3.4h-3.3c-1.1.1-2.3.1-3.4.1zm.1-13.2H4c-.5 0-.8.3-.8.8v8.8c0 .5.3.8.8.8h13c.3 0 .6-.1.7-.4.1-.1.1-.3.1-.5V4.8c0-.5-.3-.8-.8-.8-2.2.1-4.4.1-6.5.1zM13 10.5c.3-.2.5-.5.8-.6.1-.1.3-.2.5-.2h1.3c.4 0 .7.3.7.7 0 .4-.3.7-.7.7h-.3c-.6-.1-1 .1-1.4.5-.3.3-.6.5-.9.7-.5.4-1 .1-1.2-.4-.2-1-.4-2-.7-2.9 0 0 0-.1-.1-.2l-.9 3.9c0 .2-.1.4-.1.6-.1.4-.3.6-.7.6-.3 0-.6-.2-.7-.6-.3-1-.6-2.1-.9-3.1 0-.1 0-.1-.1-.3-.2.3-.4.5-.5.8-.2.3-.4.4-.7.4H5.1c-.4 0-.7-.3-.7-.7 0-.4.3-.7.7-.7h.7c.2 0 .3 0 .4-.2.3-.5.7-1 1-1.5.2-.3.4-.4.7-.4.3.1.5.3.6.6.2.6.4 1.3.6 1.9 0 0 0 .1.1.2.1-.6.3-1.1.4-1.6.2-1.1.5-2.2.7-3.2.1-.4.3-.6.7-.6.4 0 .6.2.7.6.4 1.6.7 3.3 1.1 4.9.1 0 .2 0 .2.1z"/></g></svg>