<svg xmlns="http://www.w3.org/2000/svg" viewBox="0 0 21 20" enable-background="new 0 0 21 20" alt="Print icon"><g fill="#C3C3C3"><path d="M15.6 19.6h-10c-.6-.2-1-.6-1-1.3v-3.5H2.2c-.7 0-1.2-.5-1.2-1.2V5.3C1 4.5 1.5 4 2.2 4H4.6V1.6c0-.6.3-1 .9-1.2h10.2c.6.2.9.6.9 1.3V4H19c.5 0 .9.3 1.1.8 0 .1 0 .1.1.2v8.9c-.2.6-.6.9-1.3.9H16.6v3.6c0 .5-.4 1-.9 1.2h-.1zm3.4-6V5.2H2.2v8.4h2.4v-1.2H4c-.3 0-.5-.1-.5-.4-.2-.4.1-.8.6-.8h13.1c.4 0 .6.3.6.6s-.3.6-.6.6h-.6v1.2H19zm-3.6-1.2H5.8v6h9.6v-6zm0-10.8H5.8V4h9.6V1.6zM15.4 8.2c0-.3.3-.6.6-.6s.6.3.6.6-.3.6-.6.6-.6-.3-.6-.6zM10.6 13.6h3c.3 0 .6.2.6.5s-.2.6-.5.7H7.6c-.4 0-.7-.3-.7-.6s.3-.6.7-.6h3zM10.6 17.2H7.7c-.4 0-.7-.2-.7-.6 0-.3.3-.6.7-.6h5.9c.4 0 .7.2.7.6 0 .4-.3.6-.7.6h-3z"/></g></svg>