<svg xmlns="http://www.w3.org/2000/svg" viewBox="0 0 21 20" enable-background="new 0 0 21 20"><path fill="#C3C3C3" d="M20.7 3.7c-.7.3-1.5.5-2.4.6.9-.5 1.5-1.3 1.9-2.3-.8.5-1.7.8-2.7 1-.8-.8-1.9-1.3-3.1-1.3-2.3 0-4.2 1.9-4.2 4.2 0 .3 0 .6.1 1C6.9 6.7 3.8 5 1.7 2.5c-.4.6-.6 1.3-.6 2.1 0 1.4.8 2.7 1.9 3.5-.7-.1-1.3-.3-1.9-.6v.1c0 2 1.4 3.7 3.4 4.1-.4.1-.7.1-1.1.1-.3 0-.5 0-.8-.1.5 1.7 2.1 2.9 3.9 2.9-1.4 1.1-3.2 1.8-5.2 1.8-.3 0-.7 0-1-.1 1.9 1.2 4.1 1.9 6.4 1.9 7.7 0 11.9-6.4 11.9-11.9v-.5c.8-.6 1.6-1.3 2.1-2.1z"/></svg>