<svg xmlns="http://www.w3.org/2000/svg" viewBox="0 0 21 20" enable-background="new 0 0 21 20"><path fill="#C3C3C3" d="M3.5 19.3c-.1 0-.1 0 0 0h-.2c-.3 0-.5-.1-.7-.3l-.9-.9c-.5-.5-.4-1.3.1-1.7.1-.1.2-.1.2-.2 1.6-1.4 3.2-2.9 4.8-4.3.4-.4.8-.7 1.2-1.1l-.2-.2c-.5-.5-1-1-1.4-1.5h-.1c-.7.2-1.4.3-2.1.2C2.6 9 1.5 8 1 6.5c-.1-.3-.1-.6-.1-.9v-.7c.1-.3.4-.3.6-.1l1.7 1.7.2.2h.1c.6-.2 1.3-.3 1.9-.5.1 0 .1 0 .1-.1.2-.6.3-1.2.5-1.8v-.2c-.7-.6-1.3-1.3-1.9-1.9-.2-.1-.2-.2-.2-.4.1-.1.2-.2.4-.2h.4c1.2 0 2.2.5 3 1.4.6.7.9 1.5 1 2.4 0 .6 0 1.1-.2 1.6v.1c.5.5 1 1 1.5 1.4l.4.4c1.3-1.3 2.5-2.6 3.7-3.9 0-.1-.1-.1-.1-.2-.1-.2 0-.5.1-.7.1-.1.1-.2.2-.2.2-.3.2-.7 0-1-.2-.5-.5-.9-1-1.1-.6-.4-1.2-.6-1.8-.7-.2 0-.3-.1-.5-.1 0 0-.1 0-.1-.1 0 0 0-.1.1-.1s.2-.1.3-.1c.2-.1.5-.1.7-.1h.6c.6.1 1.2.2 1.8.5.8.4 1.5.9 2.1 1.4.5.4.9.8 1.3 1.2.2.5.5.9.7 1.3.1.2.1.4.1.6v.1c.1.3.3.5.4.7.1-.1.1-.2.2-.2.1-.1.1-.1.2-.1.2-.1.5 0 .7.2.2.2.2.5-.1.7l-1.3 1.3c-.2.2-.6.2-.8 0-.2-.2-.2-.6 0-.8.1 0 .1-.1.2-.1-.3-.2-.5-.4-.8-.6-.2-.1-.3-.2-.5-.3-.1-.1-.3-.1-.4 0-.2.1-.4.1-.7 0-.1-.1-.2-.1-.4-.2-1.2 1.3-2.5 2.5-3.7 3.8l.3.3c1.2 1.1 2.4 2.2 3.5 3.3.8.7 1.5 1.4 2.3 2.1.2.2.5.4.6.7.2.4.4.8.3 1.2-.1.7-.5 1.1-1.1 1.3-.2.1-.4.1-.6.1h-.1c-.5 0-1-.3-1.4-.7-.4-.5-.9-.9-1.3-1.4-.8-.8-1.6-1.6-2.3-2.4-.5-.5-1-1.1-1.6-1.6-.1-.2-.3-.3-.5-.4l-.2.2-5.4 6c0 .2-.1.3-.2.4-.1 0-.3 0-.4.1zm13.4-1.1c.4 0 .7-.3.7-.7 0-.4-.3-.7-.7-.7-.4 0-.7.3-.7.7-.1.4.3.7.7.7z"/></svg>