<?xml version="1.0" encoding="utf-8"?>
<!-- Generator: Adobe Illustrator 18.1.1, SVG Export Plug-In . SVG Version: 6.00 Build 0)  -->
<svg version="1.1" id="Icon" xmlns="http://www.w3.org/2000/svg" xmlns:xlink="http://www.w3.org/1999/xlink" x="0px" y="0px"
	 viewBox="0 0 21 20" enable-background="new 0 0 21 20" xml:space="preserve">
<g id="QqMMjZ.tif">
	<g>
		<path fill="#B4B4B4" d="M6.9,18.7c-0.5,0-0.9-0.1-1.4-0.1c-1.2-0.1-2.3-0.3-3.4-0.7c-0.1,0-0.2-0.1-0.2-0.2
			c0.1-2.3,0.7-4.3,2.4-5.9c0.1-0.1,0.3-0.3,0.5-0.4c1.7,2,4.7,1.9,6.3,0c0.4,0.3,0.8,0.7,1.2,1.2c0.9,1.2,1.4,2.6,1.6,4.1
			c0,0.3,0.1,0.7,0.1,1c0,0.1,0,0.2-0.2,0.2c-1.2,0.3-2.3,0.6-3.5,0.7c-0.4,0-0.9,0.1-1.3,0.1C8.2,18.7,7.5,18.7,6.9,18.7z"/>
		<path fill="#B4B4B4" d="M19,13.5c-1.2,0.4-2.4,0.6-3.7,0.7c-0.4,0-0.7,0.1-1.1,0.1c-0.2,0-0.2,0-0.3-0.2c-0.5-1.2-1.1-2.2-2-3.1
			c-0.3-0.3-0.4-0.5-0.2-1C11.9,9.6,12,9,11.9,8.4c0.8,0.2,1.6,0.2,2.3,0c0.8-0.2,1.4-0.7,2-1.3c0.3,0.4,0.7,0.7,1,1.1
			c1.1,1.3,1.6,2.8,1.8,4.5c0,0.1,0,0.2,0,0.3C19,13,19,13.3,19,13.5z"/>
		<path fill="#B4B4B4" d="M13.3,1.1c0.2,0,0.4,0.1,0.6,0.1c1.5,0.4,2.6,1.8,2.5,3.4c-0.1,1.6-1.3,2.9-2.9,3.1
			c-0.5,0.1-1.1,0-1.6-0.2c-0.1,0-0.2-0.1-0.2-0.2c-0.3-0.8-0.9-1.5-1.7-2C9.9,5.3,9.8,5.2,9.8,5.1c-0.4-1.9,0.9-3.7,2.8-3.9
			c0,0,0.1,0,0.1,0C12.9,1.1,13.1,1.1,13.3,1.1z"/>
		<path fill="#B4B4B4" d="M4.6,8.8c0-1.8,1.5-3.3,3.3-3.3c1.8,0,3.3,1.5,3.3,3.3c0,1.8-1.5,3.3-3.3,3.3C6.1,12.1,4.6,10.6,4.6,8.8z"
			/>
	</g>
</g>
</svg>
