<?xml version="1.0" encoding="utf-8"?>
<!-- Generator: Adobe Illustrator 18.1.1, SVG Export Plug-In . SVG Version: 6.00 Build 0)  -->
<svg version="1.1" id="Icon" xmlns="http://www.w3.org/2000/svg" xmlns:xlink="http://www.w3.org/1999/xlink" x="0px" y="0px"
	 viewBox="0 0 21 20" enable-background="new 0 0 21 20" xml:space="preserve">
<g id="VYMiwn.tif">
	<g>
		<path fill="#C3C3C3" d="M2,1C2,1,2,1,2,1c0.4,0,0.7,0,1,0.1c0.4,0,0.7,0.1,1.1,0.1C5,1.3,5.8,1.5,6.7,1.8C9,2.4,11,3.5,12.8,5
			c2,1.6,3.6,3.6,4.8,5.9c0.7,1.4,1.2,2.8,1.6,4.4c0.1,0.6,0.2,1.1,0.3,1.7c0.1,0.7,0.1,1.3,0.1,2c0,0,0,0,0,0c-0.1,0-3.3,0-3.4,0
			c0-2.6-0.7-5-2-7.3c-1.3-2.2-3.1-4-5.3-5.3c-2.2-1.3-4.7-1.9-7.3-2c0,0,0,0,0-0.1c0-1.1,0-2.2,0-3.4c0,0,0,0,0,0C1.7,1,1.8,1,2,1z
			"/>
		<path fill="#C3C3C3" d="M1.5,7.1c0.1,0,0.3,0,0.4,0c1.7,0.1,3.3,0.4,4.8,1.2c1.2,0.6,2.2,1.3,3.2,2.2c1.6,1.6,2.6,3.4,3.2,5.6
			c0.1,0.6,0.2,1.1,0.3,1.7c0,0.4,0.1,0.7,0.1,1.1c0,0,0,0.1,0,0.1c-1.2,0-2.3,0-3.5,0c0,0,0,0,0-0.1c0-0.3,0-0.7-0.1-1
			c-0.1-0.6-0.2-1.3-0.5-1.9c-0.4-1.1-1.1-2.1-1.9-2.9c-1.1-1.1-2.5-1.9-4-2.3c-0.4-0.1-0.8-0.2-1.1-0.2c-0.3,0-0.5,0-0.8,0
			c0,0,0,0,0,0C1.5,9.4,1.5,8.3,1.5,7.1z"/>
		<path fill="#C3C3C3" d="M1.5,16.4c0-0.1,0-0.1,0-0.2c0.2-1,0.9-1.8,1.9-2C4.7,14,5.9,14.8,6.2,16C6.5,17.1,6,18.2,5,18.7
			C4.7,18.9,4.3,19,4,19c-1.2,0-2.1-0.8-2.4-1.8c0-0.1,0-0.2-0.1-0.3c0,0,0-0.1,0-0.1C1.5,16.7,1.5,16.5,1.5,16.4z"/>
	</g>
</g>
</svg>
