<?xml version="1.0" encoding="utf-8"?>
<!-- Generator: Adobe Illustrator 18.1.1, SVG Export Plug-In . SVG Version: 6.00 Build 0)  -->
<svg version="1.1" id="Icon" xmlns="http://www.w3.org/2000/svg" xmlns:xlink="http://www.w3.org/1999/xlink" x="0px" y="0px"
	 viewBox="0 0 21 20" enable-background="new 0 0 21 20" xml:space="preserve">
<g id="IRK8eR_1_">
	<g>
		<path fill="#C3C3C3" d="M4.1,3.1c2.7-0.9,5.4-1.8,8.1-2.6c0.3-0.1,0.8,0.1,0.9,0.4c1.3,2.4,2.6,4.8,3.8,7.2c0.1,0.2,0,0.7-0.1,1
			c-1.9,3-2.4,6.3-1.9,9.8c0,0.1,0,0.1-0.1,0.4c-0.2-0.3-0.4-0.4-0.4-0.6c-0.9-2.7-1.8-5.3-2.6-8c-0.1-0.3,0-0.7,0.1-0.9
			c0.5-0.8,0.1-1.3-0.5-1.7c-0.7-0.4-1.2,0-1.5,0.6c-0.4,0.7,0,1.2,0.6,1.6c0.2,0.2,0.6,0.4,0.6,0.6c1,2.8,1.9,5.6,2.8,8.4
			c0,0.1,0,0.2-0.1,0.5c-0.2-0.3-0.4-0.4-0.6-0.6c-1.8-2.9-4.1-5.2-7.3-6.5c-0.3-0.1-0.5-0.5-0.6-0.8C4.9,8.9,4.4,6.2,4,3.4
			C4,3.3,4.1,3.2,4.1,3.1z"/>
	</g>
</g>
</svg>
