<svg xmlns="http://www.w3.org/2000/svg" viewBox="0 0 21 20" enable-background="new 0 0 21 20"><path fill="#C3C3C3" d="M4.1 3.1c2.7-.9 5.4-1.8 8.1-2.6.3-.1.8.1.9.4 1.3 2.4 2.6 4.8 3.8 7.2.1.2 0 .7-.1 1-1.9 3-2.4 6.3-1.9 9.8 0 .1 0 .1-.1.4-.2-.3-.4-.4-.4-.6-.9-2.7-1.8-5.3-2.6-8-.1-.3 0-.7.1-.9.5-.8.1-1.3-.5-1.7-.7-.4-1.2 0-1.5.6-.4.7 0 1.2.6 1.6.2.2.6.4.6.6 1 2.8 1.9 5.6 2.8 8.4 0 .1 0 .2-.1.5-.2-.3-.4-.4-.6-.6-1.8-2.9-4.1-5.2-7.3-6.5-.3-.1-.5-.5-.6-.8-.4-3-.9-5.7-1.3-8.5 0-.1.1-.2.1-.3z"/></svg>
