<?xml version="1.0" encoding="utf-8"?>
<!-- Generator: Adobe Illustrator 18.1.1, SVG Export Plug-In . SVG Version: 6.00 Build 0)  -->
<svg version="1.1" id="Icon" xmlns="http://www.w3.org/2000/svg" xmlns:xlink="http://www.w3.org/1999/xlink" x="0px" y="0px"
	 viewBox="0 0 21 20" enable-background="new 0 0 21 20" xml:space="preserve">
<g id="JU2ByH_1_">
	<g>
		<path fill="#C3C3C3" d="M7.1,2.3c0,1.4,0,2.8,0,4.2c-0.3,0-0.5,0.1-0.8,0.1c-0.6,0.1-1,0.4-1.1,1c0,0.9,0,1.9,0,2.9
			c1.4,0,2.9,0,4.4,0c0,2.3,0,4.5,0,6.8c-2.7,0-5.5,0-8.2,0c0-0.1-0.1-0.2-0.1-0.3c0-2.8,0-5.6,0.1-8.4c0.1-1.2,0.3-2.4,0.8-3.5
			C3,3.2,4.8,2.1,7.1,2.3z"/>
		<path fill="#C3C3C3" d="M16.7,2.3c0,1.4,0,2.8,0,4.2c-0.3,0-0.5,0.1-0.8,0.1c-0.6,0.1-1,0.4-1,1c0,0.9,0,1.9,0,2.9
			c1.5,0,2.9,0,4.4,0c0,2.3,0,4.5,0,6.8c-2.8,0-5.5,0-8.2,0c0-0.1-0.1-0.2-0.1-0.2c0-2.9,0-5.8,0.1-8.6c0-1.3,0.3-2.6,0.9-3.8
			C13,2.9,14.6,2.3,16.7,2.3z"/>
	</g>
</g>
</svg>
