<?xml version="1.0" encoding="utf-8"?>
<!-- Generator: Adobe Illustrator 18.1.1, SVG Export Plug-In . SVG Version: 6.00 Build 0)  -->
<svg version="1.1" id="Icon" xmlns="http://www.w3.org/2000/svg" xmlns:xlink="http://www.w3.org/1999/xlink" x="0px" y="0px"
	 viewBox="0 0 21 20" enable-background="new 0 0 21 20" xml:space="preserve">
<g id="OGG6so.tif">
	<g>
		<path fill="#C3C3C3" d="M12.5,0.9c1.3,0.5,1.7,1.5,1.7,2.9c-0.1,1.6,0,3.3,0,5c1.1,0,2.1,0,3.1,0c0,0.1,0.1,0.1,0.1,0.2
			c-0.2,0.3-0.3,0.5-0.6,0.8c-1.8,1.8-3.5,3.5-5.3,5.3c-0.7,0.6-1,0.7-1.6,0.1C8,13.3,6.2,11.5,4.3,9.7C4.2,9.5,4,9.3,3.7,8.9
			c1.2,0,2.2,0,3.3,0c0-0.4,0-0.7,0.1-0.9c0-1.4,0-2.8,0-4.2C7,2.4,7.4,1.4,8.7,0.9C10,0.9,11.2,0.9,12.5,0.9z"/>
		<path fill="#C3C3C3" d="M1.4,14.5c0.4,0,0.9,0,1.4,0c0,0.8,0,1.6,0,2.4C2.8,17.8,3,18,3.8,18c4.5,0,9,0,13.5,0
			c0.9,0,1-0.2,1.1-1.1c0-0.8,0-1.6,0-2.4c0.5,0,1,0,1.4,0c0,1.1,0,2.1,0,3.2c-0.3,0.9-0.9,1.4-1.7,1.7c-5,0-10,0-15,0
			c-0.9-0.3-1.4-0.9-1.7-1.7C1.4,16.6,1.4,15.6,1.4,14.5z"/>
	</g>
</g>
</svg>
