<?xml version="1.0" encoding="utf-8"?>
<!-- Generator: Adobe Illustrator 18.1.1, SVG Export Plug-In . SVG Version: 6.00 Build 0)  -->
<svg version="1.1" id="Icon" xmlns="http://www.w3.org/2000/svg" xmlns:xlink="http://www.w3.org/1999/xlink" x="0px" y="0px"
	 viewBox="0 0 21 20" enable-background="new 0 0 21 20" xml:space="preserve">
<g id="_x3C_Path_x3E__1_">
	<g>
		<path fill="#C3C3C3" d="M3.5,19.3C3.4,19.3,3.4,19.3,3.5,19.3c-0.1,0-0.2,0-0.2,0c-0.3,0-0.5-0.1-0.7-0.3
			c-0.3-0.3-0.6-0.6-0.9-0.9c-0.5-0.5-0.4-1.3,0.1-1.7c0.1-0.1,0.2-0.1,0.2-0.2c1.6-1.4,3.2-2.9,4.8-4.3c0.4-0.4,0.8-0.7,1.2-1.1
			c-0.1-0.1-0.1-0.1-0.2-0.2c-0.5-0.5-1-1-1.4-1.5c0,0-0.1,0-0.1,0C5.6,9.3,4.9,9.4,4.2,9.3C2.6,9,1.5,8,1,6.5
			C0.9,6.2,0.9,5.9,0.9,5.6c0-0.2,0-0.4,0-0.6c0,0,0-0.1,0-0.1C1,4.6,1.3,4.6,1.5,4.8c0.6,0.6,1.1,1.1,1.7,1.7
			c0.1,0.1,0.1,0.1,0.2,0.2c0,0,0.1,0,0.1,0c0.6-0.2,1.3-0.3,1.9-0.5c0.1,0,0.1,0,0.1-0.1C5.7,5.5,5.8,4.9,6,4.3c0-0.1,0-0.1,0-0.2
			C5.3,3.5,4.7,2.8,4.1,2.2C3.9,2.1,3.9,2,3.9,1.8C4,1.7,4.1,1.6,4.3,1.6c0.1,0,0.3,0,0.4,0c1.2,0,2.2,0.5,3,1.4
			c0.6,0.7,0.9,1.5,1,2.4c0,0.6,0,1.1-0.2,1.6c0,0,0,0.1,0,0.1c0.5,0.5,1,1,1.5,1.4c0.1,0.1,0.3,0.3,0.4,0.4
			c1.3-1.3,2.5-2.6,3.7-3.9c0-0.1-0.1-0.1-0.1-0.2c-0.1-0.2,0-0.5,0.1-0.7c0.1-0.1,0.1-0.2,0.2-0.2c0.2-0.3,0.2-0.7,0-1
			c-0.2-0.5-0.5-0.9-1-1.1c-0.6-0.4-1.2-0.6-1.8-0.7C11.3,1.1,11.2,1,11,1c0,0-0.1,0-0.1-0.1c0,0,0-0.1,0.1-0.1
			c0.1,0,0.2-0.1,0.3-0.1c0.2-0.1,0.5-0.1,0.7-0.1c0.2,0,0.3,0,0.5,0c0,0,0,0,0.1,0c0.6,0.1,1.2,0.2,1.8,0.5
			c0.8,0.4,1.5,0.9,2.1,1.4c0.5,0.4,0.9,0.8,1.3,1.2C18,4.2,18.3,4.6,18.5,5c0.1,0.2,0.1,0.4,0.1,0.6c0,0,0,0.1,0,0.1
			C18.7,6,18.9,6.2,19,6.4c0.1-0.1,0.1-0.2,0.2-0.2c0.1-0.1,0.1-0.1,0.2-0.1c0.2-0.1,0.5,0,0.7,0.2C20.3,6.5,20.3,6.8,20,7
			c-0.4,0.4-0.9,0.9-1.3,1.3c-0.2,0.2-0.6,0.2-0.8,0c-0.2-0.2-0.2-0.6,0-0.8C18,7.5,18,7.4,18.1,7.4c-0.3-0.2-0.5-0.4-0.8-0.6
			c-0.2-0.1-0.3-0.2-0.5-0.3c-0.1-0.1-0.3-0.1-0.4,0c-0.2,0.1-0.4,0.1-0.7,0c-0.1-0.1-0.2-0.1-0.4-0.2c-1.2,1.3-2.5,2.5-3.7,3.8
			c0.1,0.1,0.2,0.2,0.3,0.3c1.2,1.1,2.4,2.2,3.5,3.3c0.8,0.7,1.5,1.4,2.3,2.1c0.2,0.2,0.5,0.4,0.6,0.7c0.2,0.4,0.4,0.8,0.3,1.2
			c-0.1,0.7-0.5,1.1-1.1,1.3c-0.2,0.1-0.4,0.1-0.6,0.1c0,0-0.1,0-0.1,0c0,0,0,0,0,0c-0.5,0-1-0.3-1.4-0.7c-0.4-0.5-0.9-0.9-1.3-1.4
			c-0.8-0.8-1.6-1.6-2.3-2.4c-0.5-0.5-1-1.1-1.6-1.6c-0.1-0.2-0.3-0.3-0.5-0.4c0,0-0.1,0.1-0.2,0.2c-1.8,2-3.6,4-5.4,6
			C4.1,19,4,19.1,3.9,19.2C3.8,19.2,3.6,19.2,3.5,19.3z M16.9,18.2c0.4,0,0.7-0.3,0.7-0.7c0-0.4-0.3-0.7-0.7-0.7
			c-0.4,0-0.7,0.3-0.7,0.7C16.1,17.9,16.5,18.2,16.9,18.2z"/>
	</g>
</g>
</svg>
