<svg xmlns="http://www.w3.org/2000/svg" viewBox="0 0 21 20" enable-background="new 0 0 21 20"><path fill="#C3C3C3" d="M4.7 12.3v.7c0 .1 0 .2-.1.3-.1.1-.2.1-.3.1h-.7c-.1 0-.2 0-.3-.1-.1-.1-.1-.2-.1-.3v-.7c0-.1 0-.2.1-.3.1-.1.2-.1.3-.1h.7c.1 0 .2 0 .3.1.1.1.1.2.1.3zm0-2.9v.7c0 .1 0 .2-.1.3-.1.1-.2.1-.3.1h-.7c-.1 0-.2 0-.3-.1-.1-.1-.1-.2-.1-.3v-.7c0-.1 0-.2.1-.3.1-.1.2-.1.3-.1h.7c.1 0 .2 0 .3.1.1.2.1.2.1.3zm0-2.8v.7c0 .1 0 .2-.1.3-.1 0-.2.1-.2.1h-.8c-.1 0-.2 0-.3-.1v-1c0-.1 0-.2.1-.3.1-.1.2-.1.3-.1h.7c.1 0 .2 0 .3.1v.3zm12.9 5.7v.7c0 .1 0 .2-.1.3-.1.1-.2.1-.3.1H6.5c-.1 0-.2 0-.3-.1s-.1-.2-.1-.3v-.7c0-.1 0-.2.1-.3.1-.1.2-.1.3-.1h10.7c.1 0 .2 0 .3.1.1.1.1.2.1.3zm0-2.9v.7c0 .1 0 .2-.1.3-.1.1-.2.1-.3.1H6.5c-.1 0-.2 0-.3-.1-.1-.1-.1-.2-.1-.3v-.7c0-.1 0-.2.1-.3.1-.1.2-.1.3-.1h10.7c.1 0 .2 0 .3.1.1.2.1.2.1.3zm0-2.8v.7c0 .1 0 .2-.1.3-.1.1-.2.1-.3.1H6.5c-.1 0-.2 0-.3-.1 0-.1-.1-.2-.1-.3v-.7c0-.1 0-.2.1-.3s.2-.1.3-.1h10.7c.1 0 .2 0 .3.1s.1.2.1.3zm1.4 7.9V5.2c0-.1 0-.2-.1-.3-.1-.1-.2-.1-.3-.1H2.2c-.1 0-.2 0-.2.1-.1.1-.2.2-.2.3v9.3c0 .1 0 .2.1.3.1.1.2.1.3.1h16.5c.1 0 .2 0 .3-.1s0-.2 0-.3zm1.5-12.2v12.2c0 .5-.2.9-.5 1.3-.4.4-.8.5-1.3.5H2.2c-.5 0-.9-.2-1.3-.5-.4-.4-.5-.8-.5-1.3V2.3c0-.5.2-.9.5-1.3S1.7.5 2.2.5h16.5c.5 0 .9.2 1.3.5.3.4.5.8.5 1.3z"/></svg>