<svg xmlns="http://www.w3.org/2000/svg" viewBox="0 0 21 20" enable-background="new 0 0 21 20"><path fill="#C3C3C3" d="M10.5 19.4c-5.3-.1-9.5-4.3-9.4-9.5C1.2 4.6 5.4.5 10.6.5c5.3 0 9.5 4.3 9.4 9.5 0 5.2-4.3 9.4-9.5 9.4zM7.8 9.3c.2-.1.5-.2.7-.2.7 0 .9.2.9.9 0 .4-.2.7-.2 1.1-.2.9-.5 1.8-.6 2.8-.2 1.1.4 1.9 1.5 1.8.6 0 1.3-.2 1.9-.4.4-.1.6-.4.6-.8-.1 0-.2 0-.4.1-1.1.3-1.5-.1-1.2-1.3 0-.1 0-.2.1-.2.3-1 .5-1.9.7-2.9.3-1.4-.5-2.3-1.8-2.2-.5 0-1.1.3-1.6.4-.5.1-.7.4-.6.9zm5.1-3.8c0-.8-.7-1.4-1.5-1.4s-1.5.6-1.5 1.4c0 .7.7 1.3 1.5 1.4.8 0 1.5-.7 1.5-1.4z"/></svg>