<?xml version="1.0" encoding="utf-8"?>
<!-- Generator: Adobe Illustrator 18.1.1, SVG Export Plug-In . SVG Version: 6.00 Build 0)  -->
<svg version="1.1" id="Icon" xmlns="http://www.w3.org/2000/svg" xmlns:xlink="http://www.w3.org/1999/xlink" x="0px" y="0px"
	 viewBox="0 0 21 20" enable-background="new 0 0 21 20" xml:space="preserve">
<g id="_x3C_Path_x3E_">
	<g>
		<path fill="#C3C3C3" d="M0.5,13c0-2,0-4,0-6C1,7,1.5,7,2.1,7c0,0.5,0,0.9,0,1.4c5.1-1.3,10.2-2.5,15.2-3.8c0,3.6,0,7.2,0,10.8
			c-1.1-0.3-2.2-0.6-3.4-0.8c0,0.1,0,0.2,0,0.2c0,0.9-0.6,1.4-1.5,1.4c-1.8,0-3.7,0-5.5,0c-0.8,0-1.4-0.6-1.4-1.4c0-0.5,0-1,0-1.5
			c0-0.8,0-0.8-0.8-1C3.9,12,3,11.8,2.1,11.6c0,0.5,0,0.9,0,1.4C1.5,13,1,13,0.5,13z M6.7,12.8c0,0.7,0,1.3,0,1.9
			C6.7,15,6.8,15,7.1,15c1.8,0,3.5,0,5.3,0c0.2,0,0.4,0,0.4-0.3c0-0.2,0.1-0.5-0.3-0.6c-1.1-0.2-2.2-0.5-3.3-0.8
			C8.3,13.2,7.6,13,6.7,12.8z"/>
		<path fill="#C3C3C3" d="M20.5,16.2c-0.6-0.2-1.2-0.3-1.8-0.4c-0.2,0-0.2-0.1-0.2-0.3c0-3.6,0-7.3,0-10.9c0-0.2,0.1-0.3,0.3-0.4
			c0.6-0.1,1.1-0.3,1.7-0.4C20.5,7.9,20.5,12.1,20.5,16.2z"/>
	</g>
</g>
</svg>
