<svg xmlns="http://www.w3.org/2000/svg" viewBox="0 0 21 20" enable-background="new 0 0 21 20"><g fill="#C3C3C3"><path d="M3.9 5.3h10.4c.1 0 .2-.1.2-.1.1-.1.1-.2.1-.3v-.7c0-.1 0-.2-.1-.3-.1-.1-.2-.1-.2-.1H3.9c-.1 0-.2.1-.2.1-.1.1-.1.2-.1.3v.7c0 .1 0 .2.1.3 0 0 .1.1.2.1zM19.9 18.1L17.6 15c1.2-.9 1.9-2.3 1.9-3.9 0-1.7-.8-3.1-2.1-4.1V2.3c0-.5-.2-.9-.5-1.2-.3-.3-.8-.5-1.3-.5H2.3c-.5 0-.9.1-1.3.5-.3.3-.5.7-.5 1.2v15.4c0 .5.2.9.5 1.3.3.3.8.5 1.3.5h13.4c.5 0 .9-.2 1.3-.5.3-.3.5-.8.5-1.3v-.2l1.2 1.6c.2.2.4.3.6.3.2 0 .3-.1.5-.2.3-.2.4-.7.1-1.1zm-2.4-5.2c-.3.4-.7.8-1.2 1.1l-.3.2c-.4.2-.9.3-1.4.3-1.3 0-2.4-.7-3-1.7h3.5c.1 0 .3 0 .4-.1.1-.1.2-.2.2-.3v-1c0-.1-.1-.3-.2-.4-.1-.1-.2-.1-.4-.1h-4c0-.5.2-1 .4-1.4h3.6c.1 0 .2 0 .3-.1.1-.1.1-.2.1-.3V7.8c.9.2 1.5.7 2 1.3v3.8zm-1.6 5c0 .1-.1.1-.2.1H2.3c-.1 0-.2 0-.2-.1-.1-.1-.1-.1-.1-.2V2.3c-.1-.1 0-.2 0-.3.1-.1.1-.1.2-.1h13.4c.1 0 .2.1.3.1.1.1.1.2.1.3v4c-.5-.2-1-.2-1.5-.2-1.4 0-2.6.6-3.5 1.5H3.9c-.1 0-.2 0-.2.1-.1-.1-.1 0-.1.1v.7c0 .1 0 .2.1.3.1.1.1.1.2.1H10c-.3.6-.5 1.3-.5 2.1H3.9c-.1 0-.2.1-.2.1-.1.1-.1.2-.1.3v.7c0 .1 0 .2.1.2.1.1.1.1.2.1h5.8c.3.9.7 1.7 1.4 2.3H3.9c-.1 0-.2 0-.2.1-.1.1-.1.2-.1.3v.7c0 .1 0 .2.1.3.1.1.1.1.2.1h10.4c.1 0 .1 0 .2-.1h.1c.5 0 1.1-.1 1.5-.3v1.9l-.2.2z"/></g></svg>