<svg xmlns="http://www.w3.org/2000/svg" viewBox="0 0 140 140" enable-background="new 0 0 140 140"><path fill="#2F8189" d="M1 86.7s70 27.7 96-18c0 0 9.3 28.7 3.7 58.3 0 0-19 13.3-43.3 8.7C33 131 16 123.7 1 86.7z"/><path fill="#50979C" d="M24 53.7s24.7 17.7 70.3 11c0 0-.8-15.2-15.8-27s-35.3-10.3-44.8 0-9.7 16-9.7 16z"/><path fill="#00636E" d="M104.5 124.8s4.5-27.3-2-56.8c0 0 28.8 1.2 26.8-26.7 0 0 11.2 24.8 2.7 47.8s-22.2 32.6-27.5 35.7z"/><path fill="#035F6D" d="M68.2 1.5S93 27.2 99.4 59.7c0 0 19.8-17.7 4.7-47.5-.1 0-13.4-11.9-35.9-10.7z"/></svg>