<svg xmlns="http://www.w3.org/2000/svg" viewBox="0 0 1200 610" enable-background="new 0 0 1200 610"><path fill="#F9F5ED" d="M0-.2h1200v610.4H0z"/><g><path fill="#FC4A35" d="M436.7 188l-10.3 73.6 78.8 31.5L521 255l-3.6-70.6z"/><path fill="#fff" d="M478.6 242s-8 4.7-13 6.6c-.3.1-.6.2-.8.2-2 .7-4.3-1.4-5.6-5.2-2.4-7-.2-15.4 8-29.8 3.3-6 5.7-8.7 6.4-8.9.2 0 .2 0 .2.1v-.1s0 .2-.5.8c-6 9.9-8.5 20.1-6.4 26.7 2.5 7.9 10.6 6.4 16.6 5.4 1.4-.3 2.8-.5 3.9-.6l-3.4 1.7c.2.1-5.4 3.1-5.4 3.1zM471.2 214.8c.2-.5.7-.9 1.4-1.1 1.8-.6 4.8-.2 7.4 1.1 6.7 3.3 11 10.8 15.4 26.8 1.9 6.6 2.1 10.1 1.8 10.8 0 .1-.1.1-.1.1h-.2s-.2-.2-.2-.9v-.1c-2.8-11.5-8.3-20.4-14.3-23.4-4.2-2.1-6.9-1.1-11.2 4l.2-.2c-.1.1-.3.2-.6.1-.5-.2-1-1.5-1.5-3.8-1.2-6.2.9-11.4 1.9-13.4z"/></g><g fill="#fff" stroke="#E2DED5" stroke-width="2" stroke-miterlimit="10"><path d="M427.7 55.1l80.9-2.2 5.1 125.2-86.2 2.3.2 8.3 86.3-2.3 2.8 68-15.4 37.2 7.7 3.2 16.1-38.9-2.9-69.7 140.2-3.7-.2-8.3-140.3 3.6-5.6-125.2L692 47.8v66.4h8V47.6l76-2.1V-4.8h-8v42.2l-87 2.4V-4.8h-8V40l-46 1.3V2.2h-9v39.3l-33 .9V2.2h-8v40.4l-61 1.7-1.8-50.5-8.2.3 2.1 50.4-22 .6c.7-7.8.2-30.3-.1-44.2l-8.3.2c.6 19.3.8 41 .2 43.8 0-.1 0-.1.1-.2l.7.5-13.7.5V2.2h-8v43.7l-30.1.8.8 8.4zM239.9 50.1l22 7.6-19.2 52.6 61.8 22-21.3 71.7 8 2.4 21.1-71.2 35.6 12.7-4.3 36.1 8.2 1 4.1-34.2 14.1 5 2.8-7.8-58.2-20.7 5.7-19.2 62.8 31c-.8 20.8-2.3 42.7-5.1 64.6l-.4 3.1 37.2 16.7 3.4-7.6-31.6-14.2C399 101.1 386.4 1.6 386.3.6l-8.3 1c.1.6 4.8 38 5.6 89.7l-52.9-18.4 20.9-70.6-8-2.4-20.8 70.3-22.3-7.8 17.9-60.2-8-2.4-10.7 35.8-26.9-7.6-8 21.9-22.1-7.7-2.8 7.9zm143.8 50c.1 9.5 0 19.4-.3 29.6l-60.7-29.9 5.6-19 55.4 19.3zm-76.9 24.3l-53.5-19 16.4-44.9 50.8 17.7-13.7 46.2zm-28.9-86.3l19.6 5.5-4.8 16.1-20.2-7 5.4-14.6zM404 83.2h22v8h-22zM117.52-9.977L242.453 29.11l-2.478 7.92-124.93-39.085zM81.4 90.7l.8 1.7 130.8 39 2.4-8L88.2 85.5c-2.2-4.6-8.4-18-14.8-31.2-5.6-11.5-9.4-19.2-12.1-24.4l165.4 54.6 2.6-7.9L53.4 18.5h-.1L9.9 4.2 7.3 12l42.3 14c3.6 5.3 18.8 36.6 31.8 64.7zM825.1 255.9l3 43.3 8.3-.6-6.7-96.8c17.4 16 55.8 49.5 57.8 51.3l5.5-6.3c-19.5-17-56.5-49.7-64.1-57.2l-.9-13.2c10.2-.6 20.2-1.1 29.2-1.6l1.7-.1 65.2-70.1-6.1-5.2-22.6 24.7h-71.1l-1.1-17L839.6-5.2l-8.2-1.3L814.8 106l-.1.4 4.3 62.3c-32.9 1.9-74.4 4.5-78.4 5.5l2.1 8c3.6-.8 40.4-3.1 76.9-5.3l4.9 70.2-79.5 30.8 3 7.8 16.2-6.3 5.5 20.7 8-2.2-5.8-21.5 53.2-20.5zm-.3-122.7h62.8L855 167.5c-5.6.3-15.7 1.3-27.6 1.9l-2.6-36.2zM952.5 263.6l-15.4-29 17.4-10.2-4.3-7.2-24.2 14.3 19.2 36zM1062.5 612.8h12.2l-14.3-13.3 18.2-44.1L1096 577l-5.1-1.6-12 37.4h8.7l10.6-33 26.6 33h10.7l-53.3-66.2 5.9-14.2c10.1 10.1 38.5 41.9 72.5 80.5h11.1c-20.8-23.6-37.9-42.9-50.9-57.4-17.1-19-25-27.5-29.2-31.3l10.7-26-7.7-3.2-12 29-6.3 15.3-16.8-20.9-6.5 5.2 19.7 24.5-22.1 53.6 11.9 11.1zM948.4 594.4c.6 7 2.2 13.1 4.4 18.3h9.1c-2.6-5.1-4.6-11.3-5.3-18.8l.3-.3 48.8-4.4 20.2 23.5h11l-21-24.5 6.2-.6-.8-8.3-12.1 1.1-5.7-6.6-6.3 5.4 1.8 2.1-33.2 3c21.4-20.8 58.4-51.1 78.3-44.2l2.7-7.9c-14.6-5-35.6 3.3-62.5 24.7-13.9 11-25.6 22.6-31.4 28.6l-29.8 2.7.8 8.3 24.5-2.1zM990.2 307.2l46.1 80.1 3-.7c.3-.1 1.4-.3 3.3-.8 1.9 4.1 7.6 15.8 14.7 27.5 12.2 20 22.4 29.8 31.1 29.8h.7l-.5-8.3h-.3c-9.4 0-27.5-29.6-37.7-51.4 16.8-5.3 48.1-17.7 65.8-40 15-19 49.7-75.1 73.8-114.8l13.8 9.3v-10l-9.5-6.4c3.5-5.8 6.7-11.1 9.5-15.8v-16.2c-3.7 6.1-9.4 15.8-16.4 27.3l-82-55 31.3-40.7 67.1 53.4v-10.6l-62-49.4 62-80.7V20.2l-41.2 53.6-30.5-39.5 41-23.6-4.2-7.2-49.1 28.3 37.6 48.8-22.1 28.8-77.5-61.7-5.2 6.5 77.6 61.8-87.3 113.6-12.7 4.6 3.3-4.4-28.2-21.4c6.2-10.4 35.3-49.8 53.9-74.3l-6.6-5c-.1.2-14.7 19.4-28.7 38.5-8.3 11.3-14.8 20.3-19.3 26.9-2.5 3.6-4.5 6.5-5.9 8.9l-17.4-13.2 60.2-74.9-6.5-5.2-60.3 75.1-13.4-10.2-5 6.6 41.6 31.5 29.3 22.2-43.7 15.8 2.8 7.8 38.6-14-20.8 17.4 5.3 6.4 6-5 4.1 5.5 69.2-51.7-3.1 13.2-62.2 47.8 5.1 6.6 64.5-49.6 5.8-24.7-.8-.2 30.5-22.8-.7-.9 55.3 37.1c-24.1 39.6-58.8 95.8-73.4 114.3-19.3 24.4-58.4 36.5-69.5 39.5l-40.5-70.3 9.5-14.9-7-4.5-.5.8-3.5-6.1-28.5 16.5-9.5-14.2-103.2 48.5 4.4-21.6-8.1-1.7-4.7 22.9c-25-20.5-27.9-20-30.2-19.7l1.1 7.1-5-5.7-6.3 5.5 48.9 56.1 6.3-5.5-41.7-47.7c4.9 3.1 14.3 10.3 25 19.2l-1.2 5.7 5.1-2.4c6.5 5.5 13.4 11.3 19.9 17.1l2.2 2 127.5-73.6-10.2 15.9zm45.9-60.7l30.2-25.3-8.7 3.2 42.9-55.9 21.1 14.2-85.5 63.8zM873.9 354.6c-2.9-2.6-8.5-7.4-14.9-12.8l52.2-24.5 4.9 12.9-42.2 24.4zm49.6-28.6l-4.5-11.9-4.5 1.7 43-20.2 5.2 7.8-39.2 22.6zM1185.8 304.7l-4 7.3c.2.1 7.9 4.3 20.4 11-1 4.8-2.3 14-.1 25 .5 2.4 1.1 4.7 1.9 6.9v-40.4c-6.2-3.3-12.3-6.6-18.2-9.8zM1204.1 446.4v-10.8l-93.3 64.2 4.7 6.8 19-13.1 34 38.3-19.9 15.4 5.1 6.6 20.3-15.7 27.5 31c-10.9 8.1-18.4 13.6-19.6 14.3h.1l3.9 7.4c1.2-.6 8.3-5.8 18.3-13.2v-18l-11.3-12.8 11.3-7.7v-10l-16.9 11.5-6.6-7.4 23.5-18.2v-10.5l-29 22.4-14.6-16.5 43.6-32.9V467l-49.1 37.1-13.5-15.3 62.4-42.9c-.1.1 0 .3.1.5zM822.8 347.9c-17.3-25.1-17.3-25.1-19.7-25.3l-3.4 1.3 3 2.9-.1 4.1c-1.7 0-2.7-1.1-2.8-1.2 1.8 2.1 18.3 26 29.7 42.9l-12.7 8 4.4 7 20-12.5-2.4-3.6c.1-.1-7.9-11.9-16-23.6zM-4.2 533.5l6.1 5.6 14.3-15.6 27.9 26.8-46.5 15.2 2.6 7.9 9.9-3.2-4.9 42.6h8.4l5.2-45.5 28.1-9.2-8.9 54.7h8.4l9.2-57.5 23.8-7.8-8.9 65.3h8.4l2.4-17.8 70.3-46.3 7.6 9.2v.1l.2.1 7.6 9.1c-24.5 14.9-55.8 33.7-75.8 45.6h16.2c5.4-3.2 11.4-6.8 18.1-10.8 19.7-11.8 39.5-23.8 46.9-28.3l6.3 7.6-46.9 31.6h14.9l37.3-25.2 20.9 25.2H235l35.1-16.5-3.5-7.5-27.1 12.7c-3.4-3.4-17.2-16.9-31.2-30.3l19.9-13.4 11.3-45.5 76.4 28 2.9-7.8-18-6.6 11.2-29.7 20.8 8.5 15.2 9.9-13.6 44.9-15.1-7.9-3.8 7.4 16.5 8.6-9.7 31.8 7.9 2.4 9.2-30.4 26.7 13.9c-9.2 14.8-15.6 24.8-17.2 26.9l.9.7h8.7c6.7-10.4 22.9-36.3 40.7-65.1l17.3 11.2c-6.3 9.6-22 33.4-35.4 53.9h9.9c10.4-15.9 22.4-34.1 32.4-49.4l21.6 14c-4.2 6-8.7 12.6-13.6 19.8-3.5 5.2-7.1 10.4-10.5 15.5h10c7.3-10.7 14.4-21.2 21.1-30.8l18.1 11.8-12.6 19h10l9.6-14.5 22.4 14.5h.5l4.4-6.7-47.4-31.1c11.7-16.7 21-29.6 25-33.8 15.5 9.2 30.6 18.2 44.3 26.4l4.3-7.1c-.3-.2-20.3-12.2-46.6-27.8-12.4-7.3-26.1-15.5-39.9-23.6-5.5-3.2-10.6-6.2-15.5-9.1 7.7-12.5 14.9-24.2 20.9-34l104.8 70.1 4.6-6.9L453.8 459c4.9-8 8.7-14.1 10.8-17.6l79.8 29 .9-.1c.3 0 11.3-.8 25.7-.5-3.7 26.2-6.7 46.2-8 52.4-.3 1.1-.5 1.8-.6 2.2l7.7 3.6c.1-.2.2.1.2.1 4-14 9.9-34.8 16.3-56.8 17.8 1.4 36.5 4.3 45.5 12.6l5.6-6.1c-4.9-4.5-11.9-7-19.8-9.4l27-68.3H661v-9h-21.8L609.8 466c-6.7-1.5-13.9-2.7-20.9-3.3 9.5-32.6 19.9-68.2 27.6-93.7l50.5 8.8 1.4-8.2-49.6-8.7c4.5-15 7.7-25.2 8.5-27.2l-7.6-2.7c-2.6 6.1-23.5 77.2-39.4 132.2 6.8-49 14.7-111.6 17.1-130l-8.2-1.4c-1.8 14-3.8 29.3-5.8 45.1l-73.9-28.8 15.3-38.2-7.7-3.1-15.3 38.2-47.4-18.4-17.9 50.4-43.3-17.6-21.4-9.2 6.5-21-7.9-2.5-6.3 20.2-49.1-21.2 33.7-91.2-7.8-2.9-6.7 18c-7.2-2.7-23.4-8.8-39.6-14.5-12.8-4.5-23.1-7.8-30.6-10-3.8-1.1-6.9-1.9-9.4-2.4l7.8-15.7-7.4-3.7-17.7 35.9c-46.2-23.1-83.3-50.6-83.9-51l-5 6.7c.2.2 24.9 18.5 58.8 37.8 9 5.1 17.8 9.8 26.3 14.1L219.1 276c-3.5-2-8.9-5.1-14.7-8-.1-.1-.2-.1-.3-.1l6.2-16.2-7.7-3-6 15.5c-12.1-5.6-16.4-5.7-19-4.7-1.6.6-2.8 1.7-3.5 3.3-2.3 3.9-25 29.8-54.2 62.4L96 302.9l-21.5 20.9-19.8-18.2-5.6 6.1 45.4 41.8c-4.4 4.8-8.8 9.7-13.2 14.6l-20.9-19L25 383l25.8 18.4C43 410 35.5 418.3 28.4 426l6.1 5.6c.2-.2 9.4-10.3 23.1-25.3l33.1 23.6-74.9 81.7L-3 493.5l-5.8 6 19 18.3-14.4 15.7zM53 547.4l-8.1-7.8 13.5-15.9 22.3 14.7-27.7 9zm10.8-30.1l15.3-18.1-2.2-1.9 47.3 26.8-34.7 11.3.2-1.1-25.9-17zM82.9 584l5.4-39.4 45.8-14.9 3.3 1.9 8.9 10.7L82.9 584zm86.3-27.2l3.6-7.3c4.6 3.9 12.8 11.5 22.4 20.6l-9.6 6.5-16.4-19.8zm62.4 48.4l-15.9 7.4-24.7-29.7 10.4-7c10.2 9.8 21.1 20.4 30.2 29.3zM221 552.7l-18.8 12.7c-14.2-13.5-21.6-20.2-25.6-23.4l5.9-11.8-7.4-3.7-7.1 14-.5.3.3.2-4.4 8.8-20.1-24.2-.5-.6-2.9-1.6 27.8-37.5 64.1 23.5-10.8 43.3zm72.1-29.7l-51.4-18.8 8.3-33.3 54.5 22.1-11.4 30zm77.6 55.1L342 563.3l13.4-44.1 37 24c-7.9 12.7-15.3 24.7-21.7 34.9zm26-42l-59.6-38.6-.3-.2-44.9-18.3 19.5-31.4 37.7 17.8h.5c4.6 1.5 32.5 17.3 67.5 37.7-2.5 4-4.9 8-7.4 12-38.4-24.7-58.8-37.5-60.7-38.1l-2.5 7.9c-.1 0-.2-.1-.3-.1 2.9 1.4 36.5 22.8 59.2 37.4-3 4.6-5.8 9.3-8.7 13.9zm78.1.9c-.4.5-.8 1-1.3 1.5-2.7 3.2-6.3 8.1-10.9 14.4-3.6 5-7.8 10.9-12.6 17.7l-46.3-30c6.8-11.1 13.8-22.4 20.5-33.4 16.2 9.5 33.5 19.7 50.6 29.8zm-35.3-70.5L365.3 429l-3.7 7.4 73.6 37.1c-4.5 7.3-9.1 14.8-13.7 22.4-56.6-33-67-38-70-38.8l-43.2-20.4-24.1 39-32.1-13.1.1-.5-3.8-1L221 450l32.4-42 67.2 18.3 9.4-34.1 41 15 48.7 17.7-.9 2.4 7.8 2.8.8-2.4 29.4 10.7c-5.3 8.6-11.1 18.1-17.3 28.1zm-310.4-39l-5.2 15.9-20.8-14.8 14.8-16.2L157 448l-10.4 11.6-15.6-11.2 6-18.4-7.9-2.5zm-5.5-21.2l13.1-14.3 38.7 35.6-12.8 14.3-39-35.6zm18.8-20.5l14-15.3 38.2 35.7-13.6 15.1-38.6-35.5zm91-58.4l-.7 2.3-55.6 48.8-15.1-14.1 49.1-53.6.3-.5 6.2-4.1c.8 1.2.9 3.2-.5 4.7-1.4 1.6-3.5 1.6-4.5 1.1 2 .8 10.1 7 20.8 15.4zm-50.2 56.8l56.8-49.8.4-1.4c3.7 2.9 7.6 6 11.5 9.2L200.1 400l-16.9-15.8zm59.7-59.9l18.8-64.7c3.9 1.6 7.7 3.1 11.5 4.6l-17.3 70.5c-1-.8-1.9-1.6-2.9-2.3-3.6-2.9-7-5.6-10.1-8.1zm15.5 23.1c6.6 5.3 13.2 10.7 19.2 15.5l-49.1 63.7-22.3-20.9 52.2-58.3zm21.2 26.5l42.4 15.5-7.4 26.8-55.9-15.2 20.9-27.1zm302.7 11.3c-3.4 26.3-7 53.3-10.2 76.4-12.9-.3-23.4.2-26.5.5l-11.6-4.2 32.4-78.8 15.9 6.1zm-122.9-47.7l99.2 38.6-32.5 79L430 420l29.4-82.5zm-90.1 20.7l20.7 8.9 43.7 17.8-11.5 32.3-48.6-17.7-15.4-5.6 11.1-35.7zm-48.4-20.9l-15 34.7 7.6 3.3 15-34.7 33.1 14.3-11.2 36.1-65.5-24 26.2-33.9 9.8 4.2zm-14.8-11.4l-23.4 30.4c-4.7-3.8-11.8-9.6-19.6-15.8l18-73.4c15.3 5.3 29.6 8.8 42.8 10.6l-17.8 48.2zm-55.3-95.4c8.9 1 46.1 13.8 80.6 26.9l-4.5 12.3c-26.6-3.3-55.6-14.1-82.1-26.8l6-12.4zm-9.8 19.9c4.4 2.1 8.7 4.1 13 6l-18.1 62.4c-2.8-2.2-5.3-4.1-7.5-5.8-3.6-2.8-6.4-4.9-8.4-6.3-1.9-1.4-3.7-2.6-5.4-2.8l26.4-53.5zm-39.9 25.1c4.6 2.4 9.6 5.1 14.3 7.9L204.2 306 156 358.7l-11-10.3 48.5-53.1 7.6-19.8zm-20-8.3c2.3.2 6.9 2 12.5 4.6l-7.4 19.1-47.4 51.8-12.8-12.1c43.4-48.3 52.8-59.9 55.1-63.4zm-60.6 69.6l29.9 28-14.1 15.4-30-27.6c.2-.3.5-.5.7-.8 4.8-5.3 9.3-10.3 13.5-15zm-39.8-7.6l15.5-15.1 18.2 17c-4.6 5.2-9.4 10.5-14.3 15.9l-19.4-17.8zm20 29.6l30 27.5-13.2 14.4-30-27.3c4.3-4.8 8.7-9.7 13.2-14.6zm-44.3 36.5L38 382.1l22.7-21.9L75.9 374c-6.6 7.1-13.1 14.2-19.5 21.3zm6.8 4.8c5.7-6.3 12.1-13.3 18.7-20.6l10.6 9.6-19.3 17.6 1.2 1.3-11.2-7.9zm16.6 11.8l18.8-17.2 13.2 12-15.5 16.9-16.5-11.7zm17.7 22.9l43.6 31.1-18 20.1 6.2 5.5 71.4-79.7 22.7 21.3-15.8 20.5 34.6 14-8.3 33.6-69.2-25.2-32.1 43.3-74-42 38.9-42.5zm-44.7 48.8l19.4 11L39 533.8l-17.1-16.4 30.9-33.8zM358 613.8h-6.7l4.4 3.3c.5-.6 1.3-1.7 2.3-3.3zM251.8 228.6zM479.9 540c-.1 0-.1 0-.2-.1.1.1.1.1.2.1zM698.898 439.833l-8.256-.856 9.527-91.91 8.255.855zM701.1 441.6c20.2 24.8-11.5 57-48.7 88-1.2 1-2.3 1.9-3.3 2.7l-4-22.6c17.7-24.2 30.5-39.1 33.9-40.4 0 0-.2.1-.5.1l-.5-8.4c-2.7.1-7.2.4-33.6 35.6-12.5 16.7-24.1 33.6-24.2 33.7l-.6.8-.1 1c-.2 1.3-1.5 12.4 6 16.5 1.7.9 3.5 1.4 5.6 1.4 6.5 0 15.2-4.6 26.6-14.2 17-14.2 36-31 47.4-48.2 13.2-19.8 14-37.1 2.4-51.4l-6.4 5.4zm-71.5 99.8c-1.7-.9-2.1-4.8-1.9-7.2 3.7-5.3 7.2-10.4 10.6-15.1l3.2 18 1.2-.2c-9.2 6-12.5 4.9-13.1 4.5z"/></g><g fill="#FCFCDD" stroke="#E5E4BE" stroke-width="2" stroke-miterlimit="10"><path d="M5.4 365.6l168.7-186.5 242.8 90.5-124 324.4c-17-11.5-34.3-23.2-51.6-34.8-69.2-46.7-124.4-83.9-164-110.6-22.4-15.1-41.1-27.6-54.2-36.4-6.6-4.4-12.2-7.9-15.7-10.2-6.9-4.6-7.3-4.6-9.3-4.6v11.9c-.7 0-1.2-.1-1.6-.2 13.2 8.5 151 101.3 288 193.7l-19.2 9.9h25.6l4.6-2.4c1.2.8 2.3 1.6 3.5 2.4h21.2c-5.8-3.9-11.7-7.9-17.6-11.9l125.3-327.1 159.9 59.6.8.3 74.6 12.8-6.7 123.4-120.3 74.3-1.7.7-41.9 67.8h14l36.5-59.2 124.6-76.9.1-.9L825 311.5l7-3.1 31 8.4 117.1-53.4 110.8 161-1.8 2.6-.2.3c-.3.5-28.1 46.5-55 63.3-26.5 16.5-83.2 56.5-108.4 89.2-5.6 7.2-14.5 19-24.8 32.6H928l-5.7-8.6c5.1-6.8 9.5-12.6 12.8-16.8 22.4-29.1 75.2-67.6 105.2-86.4 3.2-2 6.3-4.3 9.4-6.8l.5 25.5-44.1 93.2h13.1l42.1-89.1 24.1-40.1 108 129.2h10.5v-5.9L1092 472.8l72.8-121.2 39.3 53.7v-20.1l-32.6-44.6 32.6-54.3v-23.7L1109.7 398l-85.3-129.7-42.1-22.8-35.2-51.1 81.6-99.8.4-.5 58.5-95.4-15.2-9.3-54.8 89.5-22.1-15.1 14.7-8.9 15.7-51.5-11.3-3.5-14.5 47.1-15.4 9.3L886.3-11l-6.7 9.8 94 64.2-54.5 33-158.2 7.3c.3-10 .5-36.6-.2-109.4l-11.9.1c.4 37.1.8 95.7.3 109.8l-83.5 3.9L661 1.4l-11.9.5 14.1 326.6-69.9-12-158.9-59.2 2.9-7.6-4.1-255.8-11.9.2 3.2 193.4-26.8 56-192.1-71.6 58.8-176-11.3-3.8-58.7 175.7-131.1-48.9L7.8-8.4-3-3.7l50.9 116.8L2 96l-6.2 16.7 160.4 59.8-164 181.2 13.2 11.9zm1107.4 48.7l.8-.5-7.3 12.1-.8-1.1 7.3-10.5zm-51.1 85.8l-.3-16.7c20-20.5 36-46.7 37.7-49.4l1.3-1.8 3.7-2.6-42.4 70.5zm-45.6-222.8l86.3 131.1-4 5.8-101.3-147.1 19 10.2zM669.2 457.7l5.9-109.1 48.2 8.3 73.6-32.5-127.7 133.3zm193-153.2l-12.8-3.5 1.5-.6 56.6-16.6-45.3 20.7zm110.5-52l-95.9 28 62.5-76.5 33.4 48.5zm11.6-182l26.3 18-36.3 44.4-42.7-30.6 52.7-31.8zm-65.2 37.4l47.7 34.2-112 137.1L721 338.4l-45.7-7.9-9.1-210.9 252.9-11.7zM424.9 214l.5 33.4-2.1 5.6-14.5-5.4 16.1-33.6zM1204.1 21.3L1154.3-11l-6.4 9.9 56.2 36.5zM1209 612.8l-3.9-4.8v4.8z"/></g><g fill="#3D3C27" font-family="'Helvetica-Bold'" font-size="15.693"><text transform="matrix(.939 .344 -.344 .939 268.519 210.984)">Broadway</text><text transform="matrix(.646 -.764 .764 .646 871.685 280.072)">George St</text><text transform="matrix(.025 -1 1 .025 671.223 447.318)">Regent St</text><text transform="matrix(-.029 -1 1 -.029 673.116 295.098)">Harris St</text><text transform="matrix(.345 -.938 .938 .345 343.523 492.49)">Abercrombie St</text></g></svg>