<?xml version="1.0" encoding="utf-8"?>
<!-- Generator: Adobe Illustrator 18.1.1, SVG Export Plug-In . SVG Version: 6.00 Build 0)  -->
<svg version="1.1" xmlns="http://www.w3.org/2000/svg" xmlns:xlink="http://www.w3.org/1999/xlink" x="0px" y="0px"
	 viewBox="0 0 1200 610" enable-background="new 0 0 1200 610" xml:space="preserve">
<g id="Layer_4">
	<rect x="0" y="-0.2" fill="#F9F5ED" width="1200" height="610.4"/>
</g>
<g id="Layer_5">
	<polygon fill="#FC4A35" points="436.7,188 426.4,261.6 505.2,293.1 521,255 517.4,184.4 	"/>
	<path fill="#FFFFFF" d="M478.6,242c0,0-8,4.7-13,6.6c-0.3,0.1-0.6,0.2-0.8,0.2c-2,0.7-4.3-1.4-5.6-5.2c-2.4-7-0.2-15.4,8-29.8
		c3.3-6,5.7-8.7,6.4-8.9c0.2,0,0.2,0,0.2,0.1v-0.1c0,0,0,0.2-0.5,0.8l0,0v0c-6,9.9-8.5,20.1-6.4,26.7c2.5,7.9,10.6,6.4,16.6,5.4
		c1.4-0.3,2.8-0.5,3.9-0.6l-3.4,1.7C484.2,239,478.6,242,478.6,242z"/>
	<path fill="#FFFFFF" d="M471.2,214.8c0.2-0.5,0.7-0.9,1.4-1.1c1.8-0.6,4.8-0.2,7.4,1.1c6.7,3.3,11,10.8,15.4,26.8
		c1.9,6.6,2.1,10.1,1.8,10.8c0,0.1-0.1,0.1-0.1,0.1c0,0-0.1,0-0.2,0c0,0,0,0,0,0s-0.2-0.2-0.2-0.9v-0.1
		c-2.8-11.5-8.3-20.4-14.3-23.4c-4.2-2.1-6.9-1.1-11.2,4l0.2-0.2c-0.1,0.1-0.3,0.2-0.6,0.1c-0.5-0.2-1-1.5-1.5-3.8
		C468.1,222,470.2,216.8,471.2,214.8z"/>
</g>
<g id="Layer_2">
	<g>
		<path fill="#FFFFFF" stroke="#E2DED5" stroke-width="2" stroke-miterlimit="10" d="M427.7,55.1l80.9-2.2l5.1,125.2l-86.2,2.3
			l0.2,8.3l86.3-2.3l2.8,68l-15.4,37.2l7.7,3.2l16.1-38.9l-2.9-69.7l140.2-3.7l-0.2-8.3L522,177.8l-5.6-125.2L692,47.8v66.4h8V47.6
			l76-2.1V-4.8h-8v42.2l-87,2.4V-4.8h-8V40l-46,1.3V2.2h-9v39.3l-33,0.9V2.2h-8v40.4l-61,1.7l-1.8-50.5L506-5.9l2.1,50.4l-22,0.6
			c0.7-7.8,0.2-30.3-0.1-44.2l-8.3,0.2c0.6,19.3,0.8,41,0.2,43.8c0-0.1,0-0.1,0.1-0.2l0.7,0.5L465,45.7V2.2h-8v43.7l-30.1,0.8
			L427.7,55.1z"/>
		<path fill="#FFFFFF" stroke="#E2DED5" stroke-width="2" stroke-miterlimit="10" d="M239.9,50.1l22,7.6l-19.2,52.6l61.8,22
			L283.2,204l8,2.4l21.1-71.2l35.6,12.7l-4.3,36.1l8.2,1l4.1-34.2l14.1,5l2.8-7.8l-58.2-20.7l5.7-19.2l62.8,31
			c-0.8,20.8-2.3,42.7-5.1,64.6l-0.4,3.1l37.2,16.7l3.4-7.6l-31.6-14.2C399,101.1,386.4,1.6,386.3,0.6L378,1.6
			c0.1,0.6,4.8,38,5.6,89.7l-52.9-18.4l20.9-70.6l-8-2.4l-20.8,70.3l-22.3-7.8l17.9-60.2l-8-2.4l-10.7,35.8L272.8,28l-8,21.9
			l-22.1-7.7L239.9,50.1z M383.7,100.1c0.1,9.5,0,19.4-0.3,29.6l-60.7-29.9l5.6-19L383.7,100.1z M306.8,124.4l-53.5-19l16.4-44.9
			l50.8,17.7L306.8,124.4z M277.9,38.1l19.6,5.5l-4.8,16.1l-20.2-7L277.9,38.1z"/>
		<rect x="404" y="83.2" fill="#FFFFFF" stroke="#E2DED5" stroke-width="2" stroke-miterlimit="10" width="22" height="8"/>
		
			<rect x="113.3" y="9.4" transform="matrix(0.9544 0.2986 -0.2986 0.9544 12.1948 -52.7795)" fill="#FFFFFF" stroke="#E2DED5" stroke-width="2" stroke-miterlimit="10" width="130.9" height="8.3"/>
		<path fill="#FFFFFF" stroke="#E2DED5" stroke-width="2" stroke-miterlimit="10" d="M81.4,90.7l0.8,1.7l130.8,39l2.4-8L88.2,85.5
			c-2.2-4.6-8.4-18-14.8-31.2C67.8,42.8,64,35.1,61.3,29.9l165.4,54.6l2.6-7.9L53.4,18.5c0,0-0.1,0-0.1,0l0,0L9.9,4.2L7.3,12
			l42.3,14C53.2,31.3,68.4,62.6,81.4,90.7z"/>
		<path fill="#FFFFFF" stroke="#E2DED5" stroke-width="2" stroke-miterlimit="10" d="M825.1,255.9l3,43.3l8.3-0.6l-6.7-96.8
			c17.4,16,55.8,49.5,57.8,51.3l5.5-6.3c-19.5-17-56.5-49.7-64.1-57.2l-0.9-13.2c10.2-0.6,20.2-1.1,29.2-1.6l1.7-0.1l65.2-70.1
			l-6.1-5.2l-22.6,24.7h-71.1l-1.1-17L839.6-5.2l-8.2-1.3L814.8,106l-0.1,0.4l4.3,62.3c-32.9,1.9-74.4,4.5-78.4,5.5l2.1,8
			c3.6-0.8,40.4-3.1,76.9-5.3l4.9,70.2L745,277.9l3,7.8l16.2-6.3l5.5,20.7l8-2.2l-5.8-21.5L825.1,255.9z M824.8,133.2h62.8
			l-32.6,34.3c-5.6,0.3-15.7,1.3-27.6,1.9L824.8,133.2z"/>
		<polygon fill="#FFFFFF" stroke="#E2DED5" stroke-width="2" stroke-miterlimit="10" points="952.5,263.6 937.1,234.6 954.5,224.4 
			950.2,217.2 926,231.5 945.2,267.5 		"/>
		<path fill="#FFFFFF" stroke="#E2DED5" stroke-width="2" stroke-miterlimit="10" d="M1062.5,612.8h12.2l-14.3-13.3l18.2-44.1
			L1096,577l-5.1-1.6l-12,37.4h8.7l10.6-33l26.6,33h10.7l-53.3-66.2l5.9-14.2c10.1,10.1,38.5,41.9,72.5,80.5h11.1
			c-20.8-23.6-37.9-42.9-50.9-57.4c-17.1-19-25-27.5-29.2-31.3l10.7-26l-7.7-3.2l-12,29l0,0l0,0l-6.3,15.3l-16.8-20.9l-6.5,5.2
			l19.7,24.5l-22.1,53.6L1062.5,612.8z"/>
		<path fill="#FFFFFF" stroke="#E2DED5" stroke-width="2" stroke-miterlimit="10" d="M948.4,594.4c0.6,7,2.2,13.1,4.4,18.3h9.1
			c-2.6-5.1-4.6-11.3-5.3-18.8c0.1-0.1,0.2-0.2,0.3-0.3l48.8-4.4l20.2,23.5h11l-21-24.5l6.2-0.6l-0.8-8.3l-12.1,1.1l-5.7-6.6
			l-6.3,5.4l1.8,2.1l-33.2,3c21.4-20.8,58.4-51.1,78.3-44.2l2.7-7.9c-14.6-5-35.6,3.3-62.5,24.7c-13.9,11-25.6,22.6-31.4,28.6
			l-29.8,2.7l0.8,8.3L948.4,594.4z"/>
		<path fill="#FFFFFF" stroke="#E2DED5" stroke-width="2" stroke-miterlimit="10" d="M990.2,307.2l46.1,80.1l3-0.7
			c0.3-0.1,1.4-0.3,3.3-0.8c1.9,4.1,7.6,15.8,14.7,27.5c12.2,20,22.4,29.8,31.1,29.8c0.2,0,0.5,0,0.7,0l-0.5-8.3c-0.1,0-0.2,0-0.3,0
			c-9.4,0-27.5-29.6-37.7-51.4c16.8-5.3,48.1-17.7,65.8-40c15-19,49.7-75.1,73.8-114.8l13.8,9.3v-10l-9.5-6.4
			c3.5-5.8,6.7-11.1,9.5-15.8v-16.2c-3.7,6.1-9.4,15.8-16.4,27.3l-82-55l31.3-40.7l67.1,53.4v-10.6l-62-49.4l62-80.7V20.2
			l-41.2,53.6l-30.5-39.5l41-23.6l-4.2-7.2L1120,31.8l37.6,48.8l-22.1,28.8L1058,47.7l-5.2,6.5l77.6,61.8l-87.3,113.6l-12.7,4.6
			l3.3-4.4l-28.2-21.4c6.2-10.4,35.3-49.8,53.9-74.3l-6.6-5c-0.1,0.2-14.7,19.4-28.7,38.5c-8.3,11.3-14.8,20.3-19.3,26.9
			c-2.5,3.6-4.5,6.5-5.9,8.9l-17.4-13.2l60.2-74.9l-6.5-5.2l-60.3,75.1l-13.4-10.2l-5,6.6l41.6,31.5c0,0,0,0,0,0l0,0l29.3,22.2
			l-43.7,15.8l2.8,7.8l38.6-14l-20.8,17.4l5.3,6.4l6-5l4.1,5.5l69.2-51.7l-3.1,13.2l-62.2,47.8l5.1,6.6l64.5-49.6l5.8-24.7l-0.8-0.2
			l30.5-22.8l-0.7-0.9l55.3,37.1c-24.1,39.6-58.8,95.8-73.4,114.3c-19.3,24.4-58.4,36.5-69.5,39.5l-40.5-70.3l9.5-14.9l-7-4.5
			l-0.5,0.8l-3.5-6.1l-28.5,16.5l-9.5-14.2l-103.2,48.5l4.4-21.6l-8.1-1.7l-4.7,22.9c-25-20.5-27.9-20-30.2-19.7l1.1,7.1l-5-5.7
			l-6.3,5.5l48.9,56.1l6.3-5.5l-41.7-47.7c4.9,3.1,14.3,10.3,25,19.2l-1.2,5.7l5.1-2.4c6.5,5.5,13.4,11.3,19.9,17.1l2.2,2
			l127.5-73.6L990.2,307.2z M1036.1,246.5l30.2-25.3l-8.7,3.2l42.9-55.9l21.1,14.2L1036.1,246.5z M873.9,354.6
			c-2.9-2.6-8.5-7.4-14.9-12.8l52.2-24.5l4.9,12.9L873.9,354.6z M923.5,326l-4.5-11.9l-4.5,1.7l43-20.2l5.2,7.8L923.5,326z"/>
		<path fill="#FFFFFF" stroke="#E2DED5" stroke-width="2" stroke-miterlimit="10" d="M1185.8,304.7l-4,7.3c0.2,0.1,7.9,4.3,20.4,11
			c-1,4.8-2.3,14-0.1,25c0.5,2.4,1.1,4.7,1.9,6.9v-40.4C1197.8,311.2,1191.7,307.9,1185.8,304.7z"/>
		<path fill="#FFFFFF" stroke="#E2DED5" stroke-width="2" stroke-miterlimit="10" d="M1204.1,446.4v-10.8l-93.3,64.2l4.7,6.8
			l19-13.1l34,38.3l-19.9,15.4l5.1,6.6l20.3-15.7l27.5,31c-10.9,8.1-18.4,13.6-19.6,14.3l0.1,0l3.9,7.4c1.2-0.6,8.3-5.8,18.3-13.2
			v-18l-11.3-12.8l11.3-7.7v-10l-16.9,11.5l-6.6-7.4l23.5-18.2v-10.5l-29,22.4l-14.6-16.5l43.6-32.9V467l-49.1,37.1l-13.5-15.3
			l62.4-42.9C1203.9,446,1204,446.2,1204.1,446.4z"/>
		<path fill="#FFFFFF" stroke="#E2DED5" stroke-width="2" stroke-miterlimit="10" d="M822.8,347.9c-17.3-25.1-17.3-25.1-19.7-25.3
			l-3.4,1.3l3,2.9l-0.1,4.1c-1.7,0-2.7-1.1-2.8-1.2c1.8,2.1,18.3,26,29.7,42.9l-12.7,8l4.4,7l20-12.5l-2.4-3.6
			C838.9,371.4,830.9,359.6,822.8,347.9z"/>
		<path fill="#FFFFFF" stroke="#E2DED5" stroke-width="2" stroke-miterlimit="10" d="M-4.2,533.5l6.1,5.6l14.3-15.6l27.9,26.8
			l-46.5,15.2l2.6,7.9l9.9-3.2l-4.9,42.6h8.4l5.2-45.5l28.1-9.2L38,612.8h8.4l9.2-57.5l23.8-7.8l-8.9,65.3h8.4l2.4-17.8l70.3-46.3
			l7.6,9.2l0,0.1l0.2,0.1l7.6,9.1c-24.5,14.9-55.8,33.7-75.8,45.6h16.2c5.4-3.2,11.4-6.8,18.1-10.8c19.7-11.8,39.5-23.8,46.9-28.3
			l6.3,7.6l-46.9,31.6h14.9l37.3-25.2l20.9,25.2h30.1l35.1-16.5l-3.5-7.5l-27.1,12.7c-3.4-3.4-17.2-16.9-31.2-30.3l19.9-13.4
			l11.3-45.5l76.4,28l2.9-7.8l-18-6.6l11.2-29.7l20.8,8.5l15.2,9.9l-13.6,44.9l-15.1-7.9l-3.8,7.4l16.5,8.6l-9.7,31.8l7.9,2.4
			l9.2-30.4l26.7,13.9c-9.2,14.8-15.6,24.8-17.2,26.9l0.9,0.7h8.7c6.7-10.4,22.9-36.3,40.7-65.1l17.3,11.2
			c-6.3,9.6-22,33.4-35.4,53.9h9.9c10.4-15.9,22.4-34.1,32.4-49.4l21.6,14c-4.2,6-8.7,12.6-13.6,19.8c-3.5,5.2-7.1,10.4-10.5,15.5
			h10c7.3-10.7,14.4-21.2,21.1-30.8l18.1,11.8l-12.6,19h10l9.6-14.5l22.4,14.5h0.5l4.4-6.7L457,575.1c11.7-16.7,21-29.6,25-33.8
			c15.5,9.2,30.6,18.2,44.3,26.4l4.3-7.1c-0.3-0.2-20.3-12.2-46.6-27.8l0,0c0,0,0,0,0,0c-12.4-7.3-26.1-15.5-39.9-23.6
			c-5.5-3.2-10.6-6.2-15.5-9.1c7.7-12.5,14.9-24.2,20.9-34l104.8,70.1l4.6-6.9L453.8,459c4.9-8,8.7-14.1,10.8-17.6l79.8,29l0.9-0.1
			c0.3,0,11.3-0.8,25.7-0.5c-3.7,26.2-6.7,46.2-8,52.4c-0.3,1.1-0.5,1.8-0.6,2.2l7.7,3.6c0.1-0.2,0.2,0.1,0.2,0.1h0
			c4-14,9.9-34.8,16.3-56.8c17.8,1.4,36.5,4.3,45.5,12.6l5.6-6.1c-4.9-4.5-11.9-7-19.8-9.4l27-68.3H661v-9h-21.8l-29.4,74.9
			c-6.7-1.5-13.9-2.7-20.9-3.3c9.5-32.6,19.9-68.2,27.6-93.7l50.5,8.8l1.4-8.2l-49.6-8.7c4.5-15,7.7-25.2,8.5-27.2l-7.6-2.7
			c-2.6,6.1-23.5,77.2-39.4,132.2h0c6.8-49,14.7-111.6,17.1-130l-8.2-1.4c-1.8,14-3.8,29.3-5.8,45.1l-73.9-28.8l15.3-38.2l-7.7-3.1
			L501.8,345l-47.4-18.4l-17.9,50.4l-43.3-17.6l-21.4-9.2l6.5-21l-7.9-2.5l-6.3,20.2L315,325.7l33.7-91.2l-7.8-2.9l-6.7,18
			c-7.2-2.7-23.4-8.8-39.6-14.5c-12.8-4.5-23.1-7.8-30.6-10c-3.8-1.1-6.9-1.9-9.4-2.4l7.8-15.7l-7.4-3.7l-17.7,35.9
			c-46.2-23.1-83.3-50.6-83.9-51l-5,6.7c0.2,0.2,24.9,18.5,58.8,37.8c9,5.1,17.8,9.8,26.3,14.1l-14.4,29.2c-3.5-2-8.9-5.1-14.7-8
			c-0.1-0.1-0.2-0.1-0.3-0.1l6.2-16.2l-7.7-3l-6,15.5c-12.1-5.6-16.4-5.7-19-4.7c-1.6,0.6-2.8,1.7-3.5,3.3
			c-2.3,3.9-25,29.8-54.2,62.4l-23.9-22.3l-21.5,20.9l-19.8-18.2l-5.6,6.1l45.4,41.8c-4.4,4.8-8.8,9.7-13.2,14.6l-20.9-19L25,383
			l25.8,18.4C43,410,35.5,418.3,28.4,426l6.1,5.6c0.2-0.2,9.4-10.3,23.1-25.3l33.1,23.6l-74.9,81.7L-3,493.5l-5.8,6l19,18.3
			L-4.2,533.5z M53,547.4l-8.1-7.8l13.5-15.9l22.3,14.7L53,547.4z M63.8,517.3l15.3-18.1l-2.2-1.9l47.3,26.8l-34.7,11.3l0.2-1.1
			L63.8,517.3z M82.9,584l5.4-39.4l45.8-14.9l3.3,1.9l8.9,10.7L82.9,584z M169.2,556.8l3.6-7.3c4.6,3.9,12.8,11.5,22.4,20.6
			l-9.6,6.5L169.2,556.8z M231.6,605.2l-15.9,7.4L191,582.9l10.4-7C211.6,585.7,222.5,596.3,231.6,605.2z M221,552.7l-18.8,12.7
			c-14.2-13.5-21.6-20.2-25.6-23.4l5.9-11.8l-7.4-3.7l-7.1,14l-0.5,0.3l0.3,0.2l-4.4,8.8l-20.1-24.2l-0.5-0.6l-2.9-1.6l27.8-37.5
			l64.1,23.5L221,552.7z M293.1,523l-51.4-18.8l8.3-33.3l54.5,22.1L293.1,523z M370.7,578.1L342,563.3l13.4-44.1l37,24
			C384.5,555.9,377.1,567.9,370.7,578.1z M396.7,536.1l-59.6-38.6l-0.3-0.2l-44.9-18.3l19.5-31.4l37.7,17.8l0.5,0
			c4.6,1.5,32.5,17.3,67.5,37.7c-2.5,4-4.9,8-7.4,12c-38.4-24.7-58.8-37.5-60.7-38.1l-2.5,7.9c-0.1,0-0.2-0.1-0.3-0.1
			c2.9,1.4,36.5,22.8,59.2,37.4C402.4,526.8,399.6,531.5,396.7,536.1z M474.8,537c-0.4,0.5-0.8,1-1.3,1.5
			c-2.7,3.2-6.3,8.1-10.9,14.4c-3.6,5-7.8,10.9-12.6,17.7l-46.3-30c6.8-11.1,13.8-22.4,20.5-33.4C440.4,516.7,457.7,526.9,474.8,537
			z M439.5,466.5L365.3,429l-3.7,7.4l73.6,37.1c-4.5,7.3-9.1,14.8-13.7,22.4c-56.6-33-67-38-70-38.8l-43.2-20.4l-24.1,39l-32.1-13.1
			l0.1-0.5l-3.8-1l-27.4-11.1l32.4-42l67.2,18.3l9.4-34.1l41,15l48.7,17.7l-0.9,2.4l7.8,2.8l0.8-2.4l29.4,10.7
			C451.5,447,445.7,456.5,439.5,466.5z M129.1,427.5l-5.2,15.9l-20.8-14.8l14.8-16.2l39.1,35.6l-10.4,11.6l-15.6-11.2l6-18.4
			L129.1,427.5z M123.6,406.3l13.1-14.3l38.7,35.6l-12.8,14.3L123.6,406.3z M142.4,385.8l14-15.3l38.2,35.7L181,421.3L142.4,385.8z
			 M233.4,327.4l-0.7,2.3l-55.6,48.8L162,364.4l49.1-53.6l0.3-0.5l6.2-4.1c0.8,1.2,0.9,3.2-0.5,4.7c-1.4,1.6-3.5,1.6-4.5,1.1
			C214.6,312.8,222.7,319,233.4,327.4z M183.2,384.2l56.8-49.8l0.4-1.4c3.7,2.9,7.6,6,11.5,9.2L200.1,400L183.2,384.2z M242.9,324.3
			l18.8-64.7c3.9,1.6,7.7,3.1,11.5,4.6l-17.3,70.5c-1-0.8-1.9-1.6-2.9-2.3C249.4,329.5,246,326.8,242.9,324.3z M258.4,347.4
			c6.6,5.3,13.2,10.7,19.2,15.5l-49.1,63.7l-22.3-20.9L258.4,347.4z M279.6,373.9l42.4,15.5l-7.4,26.8L258.7,401L279.6,373.9z
			 M582.3,385.2c-3.4,26.3-7,53.3-10.2,76.4c-12.9-0.3-23.4,0.2-26.5,0.5l-11.6-4.2l32.4-78.8L582.3,385.2z M459.4,337.5l99.2,38.6
			l-32.5,79L430,420L459.4,337.5z M369.3,358.2l20.7,8.9l43.7,17.8l-11.5,32.3l-48.6-17.7l-15.4-5.6L369.3,358.2z M320.9,337.3
			l-15,34.7l7.6,3.3l15-34.7l33.1,14.3L350.4,391l-65.5-24l26.2-33.9L320.9,337.3z M306.1,325.9l-23.4,30.4
			c-4.7-3.8-11.8-9.6-19.6-15.8l18-73.4c15.3,5.3,29.6,8.8,42.8,10.6L306.1,325.9z M250.8,230.5c8.9,1,46.1,13.8,80.6,26.9
			l-4.5,12.3c-26.6-3.3-55.6-14.1-82.1-26.8L250.8,230.5z M241,250.4c4.4,2.1,8.7,4.1,13,6l-18.1,62.4c-2.8-2.2-5.3-4.1-7.5-5.8
			c-3.6-2.8-6.4-4.9-8.4-6.3c-1.9-1.4-3.7-2.6-5.4-2.8L241,250.4z M201.1,275.5c4.6,2.4,9.6,5.1,14.3,7.9L204.2,306L156,358.7
			l-11-10.3l48.5-53.1L201.1,275.5z M181.1,267.2c2.3,0.2,6.9,2,12.5,4.6l-7.4,19.1l-47.4,51.8L126,330.6
			C169.4,282.3,178.8,270.7,181.1,267.2z M120.5,336.8l29.9,28l-14.1,15.4l-30-27.6c0.2-0.3,0.5-0.5,0.7-0.8
			C111.8,346.5,116.3,341.5,120.5,336.8z M80.7,329.2l15.5-15.1l18.2,17c-4.6,5.2-9.4,10.5-14.3,15.9L80.7,329.2z M100.7,358.8
			l30,27.5l-13.2,14.4l-30-27.3C91.8,368.6,96.2,363.7,100.7,358.8z M56.4,395.3L38,382.1l22.7-21.9l15.2,13.8
			C69.3,381.1,62.8,388.2,56.4,395.3z M63.2,400.1c5.7-6.3,12.1-13.3,18.7-20.6l10.6,9.6l-19.3,17.6l1.2,1.3L63.2,400.1z
			 M79.8,411.9l18.8-17.2l13.2,12l-15.5,16.9L79.8,411.9z M97.5,434.8l43.6,31.1l-18,20.1l6.2,5.5l71.4-79.7l22.7,21.3l-15.8,20.5
			l34.6,14l-8.3,33.6L164.7,476l-32.1,43.3l-74-42L97.5,434.8z M52.8,483.6l19.4,11l-33.2,39.2l-17.1-16.4L52.8,483.6z"/>
		<path fill="#FFFFFF" stroke="#E2DED5" stroke-width="2" stroke-miterlimit="10" d="M358,613.8h-6.7l4.4,3.3
			C356.2,616.5,357,615.4,358,613.8z"/>
		<polygon fill="#FFFFFF" stroke="#E2DED5" stroke-width="2" stroke-miterlimit="10" points="251.8,228.6 251.8,228.6 251.8,228.6 
					"/>
		<path fill="#FFFFFF" stroke="#E2DED5" stroke-width="2" stroke-miterlimit="10" d="M479.9,540c-0.1,0-0.1,0-0.2-0.1l0,0
			C479.8,540,479.8,540,479.9,540z"/>
		
			<rect x="695.4" y="347.4" transform="matrix(-0.9947 -0.1031 0.1031 -0.9947 1354.7959 857.0872)" fill="#FFFFFF" stroke="#E2DED5" stroke-width="2" stroke-miterlimit="10" width="8.3" height="92.4"/>
		<path fill="#FFFFFF" stroke="#E2DED5" stroke-width="2" stroke-miterlimit="10" d="M701.1,441.6c20.2,24.8-11.5,57-48.7,88
			c-1.2,1-2.3,1.9-3.3,2.7l-4-22.6c17.7-24.2,30.5-39.1,33.9-40.4c0,0-0.2,0.1-0.5,0.1L678,461c-2.7,0.1-7.2,0.4-33.6,35.6
			c-12.5,16.7-24.1,33.6-24.2,33.7l-0.6,0.8l-0.1,1c-0.2,1.3-1.5,12.4,6,16.5c1.7,0.9,3.5,1.4,5.6,1.4c6.5,0,15.2-4.6,26.6-14.2
			c17-14.2,36-31,47.4-48.2c13.2-19.8,14-37.1,2.4-51.4L701.1,441.6z M629.6,541.4c-1.7-0.9-2.1-4.8-1.9-7.2
			c3.7-5.3,7.2-10.4,10.6-15.1l3.2,18l1.2-0.2C633.5,542.9,630.2,541.8,629.6,541.4z"/>
	</g>
</g>
<g id="Layer_3">
	<path fill="#FCFCDD" stroke="#E5E4BE" stroke-width="2" stroke-miterlimit="10" d="M5.4,365.6l168.7-186.5l242.8,90.5l-124,324.4
		c-17-11.5-34.3-23.2-51.6-34.8c-69.2-46.7-124.4-83.9-164-110.6c-22.4-15.1-41.1-27.6-54.2-36.4c-6.6-4.4-12.2-7.9-15.7-10.2
		c-6.9-4.6-7.3-4.6-9.3-4.6v11.9c-0.7,0-1.2-0.1-1.6-0.2c13.2,8.5,151,101.3,288,193.7l-19.2,9.9h25.6l4.6-2.4
		c1.2,0.8,2.3,1.6,3.5,2.4h21.2c-5.8-3.9-11.7-7.9-17.6-11.9l125.3-327.1l159.9,59.6l0.8,0.3l74.6,12.8l-6.7,123.4l-120.3,74.3
		l-1.7,0.7l-41.9,67.8h14l36.5-59.2l124.6-76.9l0.1-0.9l157.2-164.1l7-3.1l31,8.4l117.1-53.4l110.8,161l-1.8,2.6l-0.2,0.3
		c-0.3,0.5-28.1,46.5-55,63.3c-26.5,16.5-83.2,56.5-108.4,89.2c-5.6,7.2-14.5,19-24.8,32.6H928l-5.7-8.6c5.1-6.8,9.5-12.6,12.8-16.8
		c22.4-29.1,75.2-67.6,105.2-86.4c3.2-2,6.3-4.3,9.4-6.8l0.5,25.5l-44.1,93.2h13.1l42.1-89.1l24.1-40.1l108,129.2h10.5v-5.9
		L1092,472.8l72.8-121.2l39.3,53.7v-20.1l-32.6-44.6l32.6-54.3v-23.7L1109.7,398l-85.3-129.7l-42.1-22.8l-35.2-51.1l81.6-99.8
		l0.4-0.5l58.5-95.4l-15.2-9.3l-54.8,89.5l-22.1-15.1l14.7-8.9l15.7-51.5l-11.3-3.5L1000.1,47l-15.4,9.3l-98.4-67.3l-6.7,9.8
		l94,64.2L919.1,96l-158.2,7.3c0.3-10,0.5-36.6-0.2-109.4L748.8-6c0.4,37.1,0.8,95.7,0.3,109.8l-83.5,3.9L661,1.4l-11.9,0.5
		l14.1,326.6l-69.9-12l-158.9-59.2l2.9-7.6L433.2-6.1l-11.9,0.2l3.2,193.4l-26.8,56l-192.1-71.6l58.8-176l-11.3-3.8l-58.7,175.7
		L63.3,118.9L7.8-8.4L-3-3.7l50.9,116.8L2,96l-6.2,16.7l160.4,59.8L-7.8,353.7L5.4,365.6z M1112.8,414.3l0.8-0.5l-7.3,12.1l-0.8-1.1
		L1112.8,414.3z M1061.7,500.1l-0.3-16.7c20-20.5,36-46.7,37.7-49.4l1.3-1.8l3.7-2.6L1061.7,500.1z M1016.1,277.3l86.3,131.1l-4,5.8
		L997.1,267.1L1016.1,277.3z M669.2,457.7l5.9-109.1l48.2,8.3l73.6-32.5L669.2,457.7z M862.2,304.5l-12.8-3.5l1.5-0.6l56.6-16.6
		L862.2,304.5z M972.7,252.5l-95.9,28l62.5-76.5L972.7,252.5z M984.3,70.5l26.3,18l-36.3,44.4l-42.7-30.6L984.3,70.5z M919.1,107.9
		l47.7,34.2l-112,137.1L721,338.4l-45.7-7.9l-9.1-210.9L919.1,107.9z M424.9,214l0.5,33.4l-2.1,5.6l-14.5-5.4L424.9,214z"/>
	<polygon fill="#FCFCDD" stroke="#E5E4BE" stroke-width="2" stroke-miterlimit="10" points="1204.1,21.3 1154.3,-11 1147.9,-1.1 
		1204.1,35.4 	"/>
	<polygon fill="#FCFCDD" stroke="#E5E4BE" stroke-width="2" stroke-miterlimit="10" points="1209,612.8 1205.1,608 1205.1,612.8 	
		"/>
</g>
<g id="Layer_6">
	
		<text transform="matrix(0.9389 0.3443 -0.3443 0.9389 268.5189 210.984)" fill="#3D3C27" font-family="'Helvetica-Bold'" font-size="15.6932">Broadway</text>
	
		<text transform="matrix(0.6457 -0.7636 0.7636 0.6457 871.6848 280.0723)" fill="#3D3C27" font-family="'Helvetica-Bold'" font-size="15.6932">George St</text>
	
		<text transform="matrix(2.510026e-02 -0.9997 0.9997 2.510026e-02 671.2229 447.318)" fill="#3D3C27" font-family="'Helvetica-Bold'" font-size="15.6932">Regent St</text>
	
		<text transform="matrix(-2.884128e-02 -0.9996 0.9996 -2.884128e-02 673.1165 295.098)" fill="#3D3C27" font-family="'Helvetica-Bold'" font-size="15.6932">Harris St</text>
	
		<text transform="matrix(0.3455 -0.9384 0.9384 0.3455 343.5228 492.4904)" fill="#3D3C27" font-family="'Helvetica-Bold'" font-size="15.6932">Abercrombie St</text>
</g>
</svg>
